<svg id="magnifying-glass" xmlns="http://www.w3.org/2000/svg" width="28.77" height="28" viewBox="0 0 28.77 28">
  <rect id="Rectangle_3" data-name="Rectangle 3" width="28.587" height="27.809" transform="translate(0.095 0.095)" fill="rgba(0,0,0,0)"/>
  <g id="Group_4" data-name="Group 4">
    <g id="Group_3" data-name="Group 3">
      <path id="Path_2" data-name="Path 2" d="M28.334,25.758,20.8,18.43a10.851,10.851,0,0,0,2.529-7.055A11.535,11.535,0,0,0,11.64,0,11.493,11.493,0,0,0,0,11.375,11.524,11.524,0,0,0,11.64,22.75a11.826,11.826,0,0,0,7.251-2.463l7.532,7.328A1.578,1.578,0,0,0,27.429,28a1.368,1.368,0,0,0,.954-.385A1.255,1.255,0,0,0,28.334,25.758ZM2.7,11.375a8.884,8.884,0,0,1,8.993-8.75,8.884,8.884,0,0,1,8.993,8.75,8.884,8.884,0,0,1-8.993,8.75A8.885,8.885,0,0,1,2.7,11.375Z" fill="#02529c"/>
    </g>
  </g>
</svg>
