<?xml version="1.0" encoding="utf-8"?>
<!-- Generator: Adobe Illustrator 28.0.0, SVG Export Plug-In . SVG Version: 6.00 Build 0)  -->
<svg version="1.1" id="Layer_1" xmlns="http://www.w3.org/2000/svg" xmlns:xlink="http://www.w3.org/1999/xlink" x="0px" y="0px"
	 viewBox="0 0 471.3 500" style="enable-background:new 0 0 471.3 500;" xml:space="preserve">
<style type="text/css">
	.st0{fill:#0B5953;}
	.st1{fill:#17BAB6;}
	.st2{fill:#FFFFFF;fill-opacity:0.4;}
	.st3{fill:#3DD3CC;}
	.st4{fill:#158983;}
	.st5{fill:#FFFFFF;}
</style>
<g>
	<polygon class="st0" points="0,266.9 80.7,228.7 80.7,266.9 	"/>
	<polygon class="st0" points="471.3,266.9 390.5,228.7 390.5,266.9 	"/>
	<path class="st1" d="M276.4,0.5l163,166v273.9c0,32.1-25.5,58.1-57,58.1H89c-31.5,0-57-26-57-58.1V58.6C32,26.5,57.5,0.5,89,0.5
		H276.4z"/>
	<path class="st2" d="M439.4,166.4H336.3c-31.5,0-59.9-28.9-59.9-61V0.5L439.4,166.4z"/>
	<path class="st3" d="M169.7,218.3L169.7,218.3c0,5.7-4.6,10.4-10.4,10.4H98.6c-5.7,0-10.4-4.6-10.4-10.4l0,0
		c0-5.7,4.6-10.4,10.4-10.4h60.7C165.1,207.9,169.7,212.6,169.7,218.3z M251.2,176.8L251.2,176.8c0,5.7-4.6,10.4-10.4,10.4H98.6
		c-5.7,0-10.4-4.6-10.4-10.4l0,0c0-5.7,4.6-10.4,10.4-10.4h142.2C246.6,166.5,251.2,171.1,251.2,176.8z M251.2,135.3L251.2,135.3
		c0,5.7-4.6,10.4-10.4,10.4H98.6c-5.7,0-10.4-4.6-10.4-10.4l0,0c0-5.7,4.6-10.4,10.4-10.4h142.2C246.6,125,251.2,129.6,251.2,135.3z
		 M251.2,93.8L251.2,93.8c0,5.7-4.6,10.4-10.4,10.4H98.6c-5.7,0-10.4-4.6-10.4-10.4l0,0c0-5.7,4.6-10.4,10.4-10.4h142.2
		C246.6,83.4,251.2,88.1,251.2,93.8z"/>
	<rect y="266.9" class="st4" width="471.3" height="156.5"/>
	<g>
		<path class="st5" d="M149.4,368.8H121l-4.6,13.4H97.1l27.5-76.1h21.5l27.5,76.1H154L149.4,368.8z M135.2,326.6l-9.3,27.9h18.8
			L135.2,326.6z"/>
		<path class="st5" d="M244.3,306.1H264l-27,76.1h-23.2l-27-76.1h19.7l18.9,57.5L244.3,306.1z"/>
		<path class="st5" d="M282.2,306.1h18.5v76.1h-18.5V306.1z"/>
		<path class="st5" d="M324.7,306.1h49.6v14.9h-31v16h23.2v14.4h-23.2v30.8h-18.5V306.1z"/>
	</g>
</g>
</svg>
