<?xml version="1.0" encoding="utf-8"?>
<!-- Generator: Adobe Illustrator 28.0.0, SVG Export Plug-In . SVG Version: 6.00 Build 0)  -->
<svg version="1.1" id="Layer_1" xmlns="http://www.w3.org/2000/svg" xmlns:xlink="http://www.w3.org/1999/xlink" x="0px" y="0px"
	 viewBox="0 0 471.3 500" style="enable-background:new 0 0 471.3 500;" xml:space="preserve">
<style type="text/css">
	.st0{fill:#073551;}
	.st1{fill:#48A8FF;}
	.st2{fill:#FFFFFF;fill-opacity:0.4;}
	.st3{fill:#2477B5;}
	.st4{fill:#FFFFFF;}
	.st5{fill:#38A3FF;}
</style>
<g>
	<g>
		<polygon class="st0" points="0,268.5 80.7,230.3 80.7,268.5 		"/>
		<polygon class="st0" points="471.3,268.5 390.5,230.3 390.5,268.5 		"/>
		<path class="st1" d="M276.4,2l163,166v273.9c0,32.1-25.5,58.1-57,58.1H89c-31.5,0-57-26-57-58.1V60.1C31.9,28,57.5,2,89,2H276.4z"
			/>
		<path class="st2" d="M439.4,168H336.3c-31.5,0-59.9-28.9-59.9-61V2L439.4,168z"/>
		<rect y="268.5" class="st3" width="471.3" height="156.5"/>
		<g>
			<path class="st4" d="M106,305.1h19l26.5,62l26.5-62h18.9v83.4h-16.7v-54.2l-22.3,54.2h-12.7l-22.4-54.2v54.2H106V305.1z"/>
			<path class="st4" d="M243.7,389.2c-23.5,0-42.8-17.7-42.8-42.8c0-25,19.2-42.6,42.8-42.6c23.8,0,42.6,17.7,42.6,42.6
				C286.3,371.6,267.4,389.2,243.7,389.2z M243.7,374.3c15,0,25.4-10.9,25.4-27.8s-10.4-27.6-25.4-27.6c-15.2,0-25.6,10.6-25.6,27.6
				S228.5,374.3,243.7,374.3z"/>
			<path class="st4" d="M347.5,305.1h17.8l-30.6,83.4h-20.3l-30.6-83.4h17.9l22.9,66.3L347.5,305.1z"/>
		</g>
		<g>
			<circle class="st4" cx="139" cy="126.5" r="52.6"/>
			<circle class="st5" cx="139" cy="126.5" r="30.4"/>
			<path class="st4" d="M139,126.5c-4.6,4.6-4.6,12.2,0,16.8l35.8,35.8h16.8v-16.8l-35.8-35.8C151.2,121.9,143.6,121.9,139,126.5z"
				/>
		</g>
	</g>
</g>
</svg>
