<?xml version="1.0" encoding="utf-8"?>
<!-- Generator: Adobe Illustrator 27.9.0, SVG Export Plug-In . SVG Version: 6.00 Build 0)  -->
<svg version="1.1" id="Layer_1" xmlns="http://www.w3.org/2000/svg" xmlns:xlink="http://www.w3.org/1999/xlink" x="0px" y="0px"
	 viewBox="0 0 471.3 500" style="enable-background:new 0 0 471.3 500;" xml:space="preserve">
<style type="text/css">
	.st0{fill:#5B1F0A;}
	.st1{fill:#DB6626;}
	.st2{fill:#FFFFFF;fill-opacity:0.4;}
	.st3{fill:#B54F1C;}
	.st4{fill:#87330E;}
	.st5{fill:#FFFFFF;}
</style>
<g>
	<polygon class="st0" points="0,266.9 80.7,228.7 80.7,266.9 	"/>
	<polygon class="st0" points="471.3,266.9 390.5,228.7 390.5,266.9 	"/>
	<path class="st1" d="M276.4,0.5l163,166v273.9c0,32.1-25.5,58.1-57,58.1H89c-31.5,0-57-26-57-58.1V58.6C32,26.5,57.5,0.5,89,0.5
		H276.4z"/>
	<path class="st2" d="M439.4,166.4H336.3c-31.5,0-59.9-28.9-59.9-61V0.5L439.4,166.4z"/>
	<path class="st3" d="M169.7,218.3L169.7,218.3c0,5.7-4.6,10.4-10.4,10.4H98.6c-5.7,0-10.4-4.6-10.4-10.4l0,0
		c0-5.7,4.6-10.4,10.4-10.4h60.7C165.1,207.9,169.7,212.6,169.7,218.3z M251.2,176.8L251.2,176.8c0,5.7-4.6,10.4-10.4,10.4H98.6
		c-5.7,0-10.4-4.6-10.4-10.4l0,0c0-5.7,4.6-10.4,10.4-10.4h142.2C246.6,166.5,251.2,171.1,251.2,176.8z M251.2,135.3L251.2,135.3
		c0,5.7-4.6,10.4-10.4,10.4H98.6c-5.7,0-10.4-4.6-10.4-10.4l0,0c0-5.7,4.6-10.4,10.4-10.4h142.2C246.6,125,251.2,129.6,251.2,135.3z
		 M251.2,93.8L251.2,93.8c0,5.7-4.6,10.4-10.4,10.4H98.6c-5.7,0-10.4-4.6-10.4-10.4l0,0c0-5.7,4.6-10.4,10.4-10.4h142.2
		C246.6,83.4,251.2,88.1,251.2,93.8z"/>
	<rect y="266.9" class="st4" width="471.3" height="156.5"/>
	<g>
		<path class="st5" d="M122.3,354.5h-11.7v27.7H91.9V305h30.5c18.9,0,28.4,10.7,28.4,24.9C150.7,342.6,142,354.5,122.3,354.5z
			 M120.9,339.5c7.5,0,10.7-3.7,10.7-9.7s-3.2-9.7-10.7-9.7h-10.2v19.4H120.9z"/>
		<path class="st5" d="M191,354.5h-11.7v27.7h-18.8V305H191c18.9,0,28.4,10.7,28.4,24.9C219.3,342.6,210.7,354.5,191,354.5z
			 M189.5,339.5c7.5,0,10.7-3.7,10.7-9.7s-3.2-9.7-10.7-9.7h-10.2v19.4H189.5z"/>
		<path class="st5" d="M225,305h59.7v15.1h-20.5v62.2h-18.8v-62.2H225V305z"/>
		<path class="st5" d="M325.7,358.6l-13.9,23.7h-21.3l24.8-39.3L290,305h21.9l15.5,23.3L341,305h21.3l-24.5,38.9l25.5,38.3h-21.9
			L325.7,358.6z"/>
	</g>
</g>
</svg>
