<?xml version="1.0" encoding="utf-8"?>
<!-- Generator: Adobe Illustrator 27.9.0, SVG Export Plug-In . SVG Version: 6.00 Build 0)  -->
<svg version="1.1" id="Layer_1" xmlns="http://www.w3.org/2000/svg" xmlns:xlink="http://www.w3.org/1999/xlink" x="0px" y="0px"
	 viewBox="0 0 471.3 500" style="enable-background:new 0 0 471.3 500;" xml:space="preserve">
<style type="text/css">
	.st0{fill:#043017;}
	.st1{fill:#157241;}
	.st2{fill:#FFFFFF;fill-opacity:0.4;}
	.st3{fill:#34935F;}
	.st4{fill:#07542A;}
	.st5{fill:#FFFFFF;}
</style>
<g>
	<polygon class="st0" points="0,266.9 80.7,228.7 80.7,266.9 	"/>
	<polygon class="st0" points="471.3,266.9 390.5,228.7 390.5,266.9 	"/>
	<path class="st1" d="M276.4,0.5l163,166v273.9c0,32.1-25.5,58.1-57,58.1H89c-31.5,0-57-26-57-58.1V58.6C32,26.5,57.5,0.5,89,0.5
		H276.4z"/>
	<path class="st2" d="M439.4,166.4H336.3c-31.5,0-59.9-28.9-59.9-61V0.5L439.4,166.4z"/>
	<path class="st3" d="M169.7,218.3L169.7,218.3c0,5.7-4.6,10.4-10.4,10.4H98.6c-5.7,0-10.4-4.6-10.4-10.4l0,0
		c0-5.7,4.6-10.4,10.4-10.4h60.7C165.1,207.9,169.7,212.6,169.7,218.3z M251.2,176.8L251.2,176.8c0,5.7-4.6,10.4-10.4,10.4H98.6
		c-5.7,0-10.4-4.6-10.4-10.4l0,0c0-5.7,4.6-10.4,10.4-10.4h142.2C246.6,166.5,251.2,171.1,251.2,176.8z M251.2,135.3L251.2,135.3
		c0,5.7-4.6,10.4-10.4,10.4H98.6c-5.7,0-10.4-4.6-10.4-10.4l0,0c0-5.7,4.6-10.4,10.4-10.4h142.2C246.6,125,251.2,129.6,251.2,135.3z
		 M251.2,93.8L251.2,93.8c0,5.7-4.6,10.4-10.4,10.4H98.6c-5.7,0-10.4-4.6-10.4-10.4l0,0c0-5.7,4.6-10.4,10.4-10.4h142.2
		C246.6,83.4,251.2,88.1,251.2,93.8z"/>
	<rect y="266.9" class="st4" width="471.3" height="156.5"/>
	<g>
		<path class="st5" d="M167.6,358.6l-13.9,23.7h-21.3l24.8-39.3l-25.3-38h21.9l15.5,23.3l13.6-23.3h21.3l-24.5,38.9l25.5,38.3h-21.9
			L167.6,358.6z"/>
		<path class="st5" d="M233.5,305v62.7h24.6v14.5h-43.5V305H233.5z"/>
		<path class="st5" d="M295.1,383c-16.6,0-29.6-8.2-30.1-23.9h20c0.6,5.9,4.3,8.8,9.6,8.8c5.5,0,9-2.8,9-7.3
			c0-14.3-38.6-6.6-38.4-34c0-14.6,12-22.8,28.2-22.8c16.8,0,28.2,8.4,28.9,23.1h-20.4c-0.3-4.9-3.8-7.9-8.9-8
			c-4.5-0.1-7.9,2.2-7.9,7c0,13.4,38.2,7.4,38.2,33.2C323.3,372.2,313.2,383,295.1,383z"/>
	</g>
</g>
</svg>
